<svg width="41" height="40" viewBox="0 0 41 40" fill="none" xmlns="http://www.w3.org/2000/svg">
<g id="mdi:location">
<path id="Vector" d="M20.5 19.1667C19.3949 19.1667 18.3351 18.7277 17.5537 17.9463C16.7723 17.1649 16.3333 16.1051 16.3333 15C16.3333 13.895 16.7723 12.8352 17.5537 12.0538C18.3351 11.2724 19.3949 10.8334 20.5 10.8334C21.6051 10.8334 22.6649 11.2724 23.4463 12.0538C24.2277 12.8352 24.6667 13.895 24.6667 15C24.6667 15.5472 24.5589 16.089 24.3495 16.5946C24.1401 17.1001 23.8332 17.5594 23.4463 17.9463C23.0594 18.3332 22.6 18.6401 22.0945 18.8495C21.589 19.0589 21.0472 19.1667 20.5 19.1667ZM20.5 3.33337C17.4058 3.33337 14.4383 4.56254 12.2504 6.75046C10.0625 8.93839 8.83334 11.9058 8.83334 15C8.83334 23.75 20.5 36.6667 20.5 36.6667C20.5 36.6667 32.1667 23.75 32.1667 15C32.1667 11.9058 30.9375 8.93839 28.7496 6.75046C26.5617 4.56254 23.5942 3.33337 20.5 3.33337Z" fill="black"/>
</g>
</svg>
