<svg width="41" height="40" viewBox="0 0 41 40" fill="none" xmlns="http://www.w3.org/2000/svg">
<g id="ic:baseline-phone">
<path id="Vector" d="M11.5333 17.9833C13.9333 22.7 17.8 26.55 22.5167 28.9667L26.1833 25.3C26.6333 24.85 27.3 24.7 27.8833 24.9C29.75 25.5167 31.7667 25.85 33.8333 25.85C34.75 25.85 35.5 26.6 35.5 27.5167V33.3333C35.5 34.25 34.75 35 33.8333 35C18.1833 35 5.5 22.3167 5.5 6.66667C5.5 5.75 6.25 5 7.16667 5H13C13.9167 5 14.6667 5.75 14.6667 6.66667C14.6667 8.75 15 10.75 15.6167 12.6167C15.8 13.2 15.6667 13.85 15.2 14.3167L11.5333 17.9833Z" fill="black"/>
</g>
</svg>
