<svg width="47" height="74" viewBox="0 0 47 74" fill="none" xmlns="http://www.w3.org/2000/svg">
<g id="mdi:user-badge">
<path id="Vector" d="M38.2857 20.5455H29.7143V27.3636H18.2857V20.5455H9.71429C8.19876 20.5455 6.74531 21.0243 5.67368 21.8768C4.60204 22.7292 4 23.8854 4 25.0909V61.4545C4 62.6601 4.60204 63.8162 5.67368 64.6687C6.74531 65.5211 8.19876 66 9.71429 66H38.2857C39.8012 66 41.2547 65.5211 42.3263 64.6687C43.398 63.8162 44 62.6601 44 61.4545V25.0909C44 23.8854 43.398 22.7292 42.3263 21.8768C41.2547 21.0243 39.8012 20.5455 38.2857 20.5455ZM24 31.9091C25.5155 31.9091 26.969 32.388 28.0406 33.2404C29.1122 34.0929 29.7143 35.249 29.7143 36.4545C29.7143 37.6601 29.1122 38.8162 28.0406 39.6687C26.969 40.5211 25.5155 41 24 41C22.4845 41 21.031 40.5211 19.9594 39.6687C18.8878 38.8162 18.2857 37.6601 18.2857 36.4545C18.2857 35.249 18.8878 34.0929 19.9594 33.2404C21.031 32.388 22.4845 31.9091 24 31.9091ZM35.4286 50.0909H12.5714V47.8182C12.5714 44.7955 20.2 43.2727 24 43.2727C27.8 43.2727 35.4286 44.7955 35.4286 47.8182V50.0909ZM26.8571 25.0909H21.1429V16H26.8571V25.0909ZM35.4286 56.9091H12.5714V54.6364H35.4286V56.9091ZM24 61.4545H12.5714V59.1818H24V61.4545Z" fill="black"/>
</g>
</svg>
