<svg width="48" height="52" viewBox="0 0 48 52" fill="none" xmlns="http://www.w3.org/2000/svg">
<g id="fa-brands:github-square">
<path id="Vector" d="M42.8571 3.25H5.14286C2.30357 3.25 0 5.43359 0 8.125V43.875C0 46.5664 2.30357 48.75 5.14286 48.75H42.8571C45.6964 48.75 48 46.5664 48 43.875V8.125C48 5.43359 45.6964 3.25 42.8571 3.25ZM29.7107 42.2195C28.8107 42.3719 28.4786 41.8438 28.4786 41.407C28.4786 40.8586 28.5 38.0555 28.5 35.7906C28.5 34.2062 27.9429 33.2008 27.2893 32.6727C31.2536 32.2563 35.4321 31.7383 35.4321 25.2484C35.4321 23.4 34.7357 22.4758 33.6 21.2875C33.7821 20.8508 34.3929 19.0531 33.4179 16.7172C31.9286 16.2805 28.5214 18.5352 28.5214 18.5352C27.1071 18.1594 25.575 17.9664 24.0643 17.9664C22.5536 17.9664 21.0214 18.1594 19.6071 18.5352C19.6071 18.5352 16.2 16.2805 14.7107 16.7172C13.7357 19.043 14.3357 20.8406 14.5286 21.2875C13.3929 22.4758 12.8571 23.4 12.8571 25.2484C12.8571 31.7078 16.8536 32.2563 20.8179 32.6727C20.3036 33.1094 19.8429 33.8609 19.6821 34.9375C18.6643 35.3742 16.0607 36.1258 14.5071 33.5258C13.5321 31.9211 11.775 31.7891 11.775 31.7891C10.0393 31.7687 11.6571 32.825 11.6571 32.825C12.8143 33.3328 13.6286 35.2828 13.6286 35.2828C14.6679 38.2992 19.6393 37.2836 19.6393 37.2836C19.6393 38.6953 19.6607 40.9906 19.6607 41.407C19.6607 41.8438 19.3393 42.3719 18.4286 42.2195C11.3571 39.975 6.40714 33.5969 6.40714 26.1422C6.40714 16.8187 13.9286 9.73984 23.7643 9.73984C33.6 9.73984 41.5714 16.8187 41.5714 26.1422C41.5821 33.5969 36.7821 39.9852 29.7107 42.2195ZM19.2 36.0141C18.9964 36.0547 18.8036 35.9734 18.7821 35.8414C18.7607 35.6891 18.9 35.557 19.1036 35.5164C19.3071 35.4961 19.5 35.5773 19.5214 35.7094C19.5536 35.8414 19.4143 35.9734 19.2 36.0141ZM18.1821 35.9227C18.1821 36.0547 18.0214 36.1664 17.8071 36.1664C17.5714 36.1867 17.4107 36.075 17.4107 35.9227C17.4107 35.7906 17.5714 35.6789 17.7857 35.6789C17.9893 35.6586 18.1821 35.7703 18.1821 35.9227ZM16.7143 35.8109C16.6714 35.943 16.4571 36.0039 16.275 35.943C16.0714 35.9023 15.9321 35.75 15.975 35.618C16.0179 35.4859 16.2321 35.425 16.4143 35.4656C16.6286 35.5266 16.7679 35.6789 16.7143 35.8109ZM15.3964 35.2625C15.3 35.3742 15.0964 35.3539 14.9357 35.2016C14.775 35.0695 14.7321 34.8766 14.8393 34.7852C14.9357 34.6734 15.1393 34.6938 15.3 34.8461C15.4393 34.9781 15.4929 35.1813 15.3964 35.2625ZM14.4214 34.3383C14.325 34.3992 14.1429 34.3383 14.025 34.1859C13.9071 34.0336 13.9071 33.8609 14.025 33.7898C14.1429 33.6984 14.325 33.7695 14.4214 33.9219C14.5393 34.0742 14.5393 34.257 14.4214 34.3383ZM13.725 33.3531C13.6286 33.4445 13.4679 33.3937 13.35 33.2922C13.2321 33.1602 13.2107 33.0078 13.3071 32.9367C13.4036 32.8453 13.5643 32.8961 13.6821 32.9977C13.8 33.1297 13.8214 33.282 13.725 33.3531ZM13.0071 32.6016C12.9643 32.693 12.825 32.7133 12.7071 32.6422C12.5679 32.5812 12.5036 32.4695 12.5464 32.3781C12.5893 32.3172 12.7071 32.2867 12.8464 32.3375C12.9857 32.4086 13.05 32.5203 13.0071 32.6016Z" fill="black"/>
</g>
</svg>
