<svg width="48" height="48" viewBox="0 0 48 48" fill="none" xmlns="http://www.w3.org/2000/svg">
<g id="skill-icons:linkedin" clip-path="url(#clip0_10_49)">
<g id="Group">
<path id="Vector" d="M36.75 0H11.25C5.0368 0 0 5.0368 0 11.25V36.75C0 42.9632 5.0368 48 11.25 48H36.75C42.9632 48 48 42.9632 48 36.75V11.25C48 5.0368 42.9632 0 36.75 0Z" fill="white"/>
<path id="Vector_2" d="M36.75 0H11.25C5.0368 0 0 5.0368 0 11.25V36.75C0 42.9632 5.0368 48 11.25 48H36.75C42.9632 48 48 42.9632 48 36.75V11.25C48 5.0368 42.9632 0 36.75 0Z" fill="#0A66C2"/>
<path id="Vector_3" d="M34.6341 40.8159H40.1222C40.3211 40.8159 40.5118 40.7369 40.6525 40.5963C40.7931 40.4557 40.8721 40.265 40.8722 40.0661L40.875 28.4707C40.875 22.4102 39.5691 17.7518 32.4866 17.7518C29.7943 17.6516 27.2554 19.0395 25.8853 21.357C25.8786 21.3683 25.8684 21.377 25.8563 21.3819C25.8441 21.3869 25.8307 21.3877 25.8181 21.3842C25.8054 21.3808 25.7943 21.3734 25.7863 21.363C25.7782 21.3526 25.7739 21.3399 25.7738 21.3268V19.0613C25.7738 18.8623 25.6947 18.6716 25.5541 18.5309C25.4134 18.3903 25.2227 18.3113 25.0238 18.3113H19.8156C19.6166 18.3113 19.4259 18.3903 19.2852 18.5309C19.1446 18.6716 19.0656 18.8623 19.0656 19.0613V40.065C19.0656 40.2639 19.1446 40.4547 19.2852 40.5953C19.4259 40.736 19.6166 40.815 19.8156 40.815H25.3033C25.5022 40.815 25.693 40.736 25.8336 40.5953C25.9743 40.4547 26.0533 40.2639 26.0533 40.065V29.6826C26.0533 26.7469 26.6102 23.9038 30.2498 23.9038C33.8376 23.9038 33.8841 27.2631 33.8841 29.8727V40.0659C33.8841 40.2649 33.9631 40.4556 34.1037 40.5963C34.2444 40.7369 34.4352 40.8159 34.6341 40.8159ZM7.125 11.1801C7.125 13.4047 8.95631 15.2351 11.181 15.2351C13.4051 15.2349 15.2353 13.4034 15.2353 11.1793C15.2349 8.95519 13.4046 7.125 11.1802 7.125C8.95537 7.125 7.125 8.95556 7.125 11.1801ZM8.42981 40.8159H13.9249C14.1238 40.8159 14.3146 40.7369 14.4552 40.5963C14.5959 40.4556 14.6749 40.2649 14.6749 40.0659V19.0613C14.6749 18.8623 14.5959 18.6716 14.4552 18.5309C14.3146 18.3903 14.1238 18.3113 13.9249 18.3113H8.42981C8.2309 18.3113 8.04013 18.3903 7.89948 18.5309C7.75883 18.6716 7.67981 18.8623 7.67981 19.0613V40.0659C7.67981 40.2649 7.75883 40.4556 7.89948 40.5963C8.04013 40.7369 8.2309 40.8159 8.42981 40.8159Z" fill="white"/>
</g>
</g>
<defs>
<clipPath id="clip0_10_49">
<rect width="48" height="48" fill="white"/>
</clipPath>
</defs>
</svg>
